<?xml version="1.0" standalone="no"?>
<!DOCTYPE svg PUBLIC "-//W3C//DTD SVG 20010904//EN"
 "http://www.w3.org/TR/2001/REC-SVG-20010904/DTD/svg10.dtd">
<svg version="1.0" xmlns="http://www.w3.org/2000/svg"
 width="440.000000pt" height="440.000000pt" viewBox="0 0 640.000000 640.000000"
 preserveAspectRatio="xMidYMid meet">

<g transform="translate(0.000000,640.000000) scale(0.100000,-0.100000)"
fill="#000000" stroke="none">
<path d="M4437 5484 c-4 -4 -7 -26 -7 -50 0 -36 3 -43 24 -48 13 -3 26 -14 28
-23 3 -10 7 -22 9 -28 2 -5 -8 -10 -23 -10 -33 -1 -68 -31 -68 -58 0 -11 5
-36 12 -54 10 -26 10 -41 0 -65 -16 -42 -1 -59 29 -32 30 27 49 68 49 107 0
23 8 41 25 57 14 13 25 28 25 32 0 5 -11 24 -25 42 -14 18 -25 39 -25 47 0 8
-4 19 -9 25 -5 5 -11 20 -13 33 -3 25 -19 37 -31 25z"/>
<path d="M1160 5382 c-6 -2 -10 -177 -10 -493 l0 -489 23 0 c40 -1 592 -1 605
-1 9 1 12 30 12 111 l0 110 -192 0 c-106 0 -199 4 -206 9 -9 5 -12 28 -10 77
l3 69 163 3 163 2 -3 113 -3 112 -160 5 -160 5 -3 58 c-2 34 2 65 8 72 9 11
52 14 193 14 100 0 188 1 195 1 9 0 12 29 12 110 0 81 -3 110 -12 110 -7 0
-147 1 -311 2 -163 2 -302 2 -307 0z"/>
<path d="M1920 5382 c-16 -6 -13 -982 3 -982 6 -1 57 -1 112 -2 l100 -1 0 492
0 492 -103 2 c-56 1 -107 1 -112 -1z"/>
<path d="M2864 5381 c-2 -2 -4 -127 -4 -278 0 -150 -3 -273 -7 -273 -5 0 -29
37 -54 83 -64 115 -120 213 -201 350 l-69 117 -124 0 -125 0 2 -492 3 -493
103 0 c107 0 125 6 122 42 -1 10 -2 130 -1 267 1 287 -7 279 96 101 132 -228
169 -293 197 -342 16 -29 35 -56 41 -60 15 -9 223 -11 237 -3 11 7 15 968 5
979 -6 5 -215 8 -221 2z"/>
<path d="M4572 5273 c3 -30 23 -41 31 -18 9 21 -2 45 -20 45 -10 0 -13 -9 -11
-27z"/>
<path d="M4500 5175 c-13 -16 -7 -45 9 -45 14 0 41 30 41 46 0 18 -34 18 -50
-1z"/>
<path d="M4456 5051 c-35 -7 -56 -35 -39 -52 9 -9 16 -9 27 0 8 7 49 15 90 18
67 5 81 3 121 -18 39 -21 46 -22 59 -9 8 8 17 26 21 40 l6 25 -73 -2 c-40 -1
-84 -4 -98 -5 -14 -1 -38 0 -55 3 -16 3 -43 3 -59 0z"/>
<path d="M4120 5008 c0 -13 5 -30 10 -38 9 -13 11 -13 20 0 15 22 8 54 -12 58
-13 3 -18 -3 -18 -20z"/>
<path d="M4500 4995 c0 -2 11 -20 25 -41 l24 -36 -21 -41 c-30 -59 -55 -79
-139 -112 -73 -27 -75 -29 -102 -86 -31 -67 -32 -69 -12 -69 53 0 209 110 237
168 18 36 36 39 40 5 2 -15 8 -28 13 -28 6 0 11 37 13 85 2 47 7 89 11 93 10
10 79 -76 87 -110 4 -14 14 -23 25 -23 23 0 23 -2 2 42 -22 43 -86 118 -101
118 -7 0 -12 4 -12 8 0 11 -46 32 -70 32 -11 0 -20 -2 -20 -5z"/>
<path d="M4330 4905 c-14 -17 -4 -55 14 -55 15 0 56 42 56 58 0 17 -55 15 -70
-3z"/>
<path d="M3726 4851 c-3 -4 4 -22 15 -40 11 -18 18 -36 15 -38 -9 -9 14 -44
25 -38 15 10 11 51 -8 84 -19 32 -39 46 -47 32z"/>
<path d="M3607 4843 c-11 -10 -8 -23 4 -23 19 0 78 -51 81 -71 5 -32 23 -27
26 7 4 42 -39 94 -77 94 -15 0 -31 -3 -34 -7z"/>
<path d="M3819 4823 c-1 -5 0 -12 1 -18 2 -5 2 -48 1 -96 -2 -85 9 -139 29
-139 5 0 10 14 10 31 0 18 5 60 12 96 10 55 9 68 -5 98 -15 31 -45 48 -48 28z"/>
<path d="M4134 4796 c-9 -24 15 -58 39 -54 17 2 21 9 19 28 -4 37 -47 56 -58
26z"/>
<path d="M3895 4711 c-5 -62 -4 -86 8 -108 9 -15 18 -37 22 -47 4 -14 9 -16
17 -8 8 8 8 21 0 50 -7 22 -12 57 -12 78 0 53 -11 114 -20 114 -4 0 -11 -36
-15 -79z"/>
<path d="M3505 4771 c-8 -14 5 -130 16 -137 5 -3 9 -18 9 -35 0 -16 4 -37 9
-47 6 -9 12 -29 16 -44 4 -19 12 -28 25 -28 24 0 26 22 6 82 -14 44 -23 87
-35 168 -6 44 -30 65 -46 41z"/>
<path d="M4710 4755 c0 -8 5 -15 10 -15 6 0 10 7 10 15 0 8 -4 15 -10 15 -5 0
-10 -7 -10 -15z"/>
<path d="M3380 4730 c0 -24 26 -38 42 -22 8 8 8 15 -2 27 -18 21 -40 19 -40
-5z"/>
<path d="M4614 4665 c-12 -48 43 -211 83 -248 18 -16 22 -16 33 -2 20 25 -2
99 -59 191 -11 18 -21 42 -23 55 -4 32 -26 35 -34 4z"/>
<path d="M3658 4640 c-28 -17 -21 -49 16 -84 19 -17 37 -44 41 -61 4 -16 10
-39 15 -50 45 -105 54 -144 54 -236 1 -82 4 -100 21 -119 17 -19 20 -35 19
-101 -2 -75 -1 -79 22 -85 30 -8 87 11 109 36 15 17 16 24 7 46 -7 13 -12 35
-12 47 0 13 -29 81 -65 152 -65 130 -65 130 -65 216 0 89 -13 131 -64 204 -11
16 -21 31 -22 32 -3 9 -62 11 -76 3z"/>
<path d="M3424 4599 c-8 -13 46 -121 64 -127 15 -5 17 44 2 53 -5 3 -10 21
-10 40 0 39 -38 63 -56 34z"/>
<path d="M4890 4591 c0 -11 26 -22 65 -27 16 -2 34 -9 39 -14 16 -16 46 -12
40 4 -12 32 -144 65 -144 37z"/>
<path d="M4009 4565 c-19 -14 -62 -39 -97 -56 -51 -25 -62 -35 -57 -50 4 -11
2 -19 -4 -19 -6 0 -11 -7 -11 -15 0 -8 4 -15 8 -15 14 0 105 61 140 94 27 25
68 86 58 86 -2 0 -18 -11 -37 -25z"/>
<path d="M4456 4531 c-22 -24 -99 -66 -161 -86 -28 -9 -54 -20 -58 -25 -12
-11 45 -119 64 -119 13 -1 15 8 11 48 -4 49 -4 49 36 70 22 11 57 36 77 56 21
19 42 35 46 35 5 0 9 9 9 20 0 25 -3 25 -24 1z"/>
<path d="M4818 4509 c-3 -13 -3 -46 1 -74 3 -27 1 -108 -6 -179 -8 -84 -9
-135 -3 -147 6 -10 10 -34 10 -53 0 -20 4 -36 9 -36 15 0 22 34 20 92 -1 29 3
85 10 123 7 39 15 88 18 109 6 47 -13 134 -37 166 l-17 23 -5 -24z"/>
<path d="M5380 4477 c0 -8 3 -17 7 -21 27 -26 46 -188 25 -211 -5 -6 -15 -29
-22 -53 -7 -23 -19 -47 -27 -53 -7 -6 -13 -23 -13 -37 l0 -26 31 30 c50 47 90
112 106 171 19 74 3 153 -39 189 -32 26 -68 32 -68 11z"/>
<path d="M3993 4463 c-19 -7 -16 -20 10 -45 23 -24 23 -19 13 -223 -1 -29 1
-30 59 -38 65 -9 79 -21 63 -50 -12 -24 -10 -26 30 -20 30 5 32 8 32 47 0 56
-7 63 -70 79 l-55 14 -6 74 c-6 67 -5 76 15 91 11 10 29 18 39 18 9 0 17 7 17
15 0 10 -10 15 -32 15 -18 0 -46 7 -62 15 -30 16 -34 16 -53 8z"/>
<path d="M5143 4464 c-7 -3 -2 -15 14 -32 92 -97 120 -192 89 -302 -14 -49
-15 -68 -6 -95 10 -32 70 -95 89 -95 5 0 12 -12 16 -27 3 -15 34 -54 68 -87
34 -34 68 -70 75 -81 10 -17 11 -10 8 48 -3 74 -14 93 -75 129 -20 12 -51 35
-68 52 -30 27 -33 35 -33 87 0 38 5 61 14 66 21 13 60 124 59 170 -1 75 -31
131 -86 158 -28 14 -137 20 -164 9z"/>
<path d="M3500 4434 c0 -28 27 -99 37 -97 4 1 14 10 21 21 11 17 9 24 -23 57
-28 30 -35 34 -35 19z"/>
<path d="M4550 4435 c-7 -9 -11 -46 -10 -102 3 -145 15 -129 -101 -137 -56 -3
-105 -9 -110 -12 -13 -7 -11 -64 2 -64 6 0 18 4 27 9 16 8 45 14 145 28 21 3
43 1 49 -5 19 -19 -43 -130 -104 -185 l-31 -28 26 -59 c31 -74 93 -167 119
-181 17 -9 26 -5 54 22 31 30 34 38 34 94 0 33 -4 75 -9 93 -5 18 -12 62 -16
98 -3 37 -8 72 -12 78 -7 11 -19 125 -29 284 -6 83 -12 94 -34 67z"/>
<path d="M3600 4380 c0 -55 10 -62 34 -25 13 20 14 29 4 50 -19 43 -38 31 -38
-25z"/>
<path d="M1150 3953 c0 -348 4 -387 49 -468 87 -156 283 -232 451 -175 131 44
225 146 255 274 12 52 15 127 13 378 l-3 313 -113 0 -112 0 -3 -320 c-2 -300
-3 -322 -22 -354 -40 -68 -120 -98 -187 -70 -94 38 -98 57 -98 434 l0 315
-115 0 -115 0 0 -327z"/>
<path d="M2037 4273 c-4 -3 -7 -226 -7 -495 l0 -489 113 3 112 3 3 268 c2 204
5 268 14 265 14 -5 20 -15 186 -303 63 -110 122 -208 130 -217 13 -15 33 -18
134 -18 72 0 118 4 118 10 0 6 0 227 0 493 l1 482 -113 0 -112 0 2 -260 c1
-143 -2 -266 -7 -274 -10 -16 -23 2 -118 169 -33 58 -86 150 -118 205 -32 55
-64 111 -71 125 -8 13 -21 28 -31 32 -23 9 -228 10 -236 1z"/>
<path d="M3000 3785 l0 -495 133 0 c202 0 316 40 425 147 29 29 61 57 71 63
10 5 21 22 24 37 3 16 15 60 26 98 14 49 21 99 21 166 l0 97 -27 5 c-41 8 -61
-10 -94 -88 -28 -65 -29 -76 -23 -151 8 -101 -4 -113 -46 -48 -29 47 -37 74
-24 87 12 12 51 116 70 183 11 43 28 76 46 94 15 16 28 38 28 49 0 35 -135
161 -210 198 -96 46 -133 53 -284 53 l-136 0 0 -495z m304 250 c98 -41 166
-148 166 -261 0 -116 -112 -244 -214 -244 l-26 0 0 260 c0 292 -4 278 74 245z"/>
<path d="M5132 4133 c-5 -15 -33 -52 -61 -82 -28 -29 -51 -60 -51 -68 0 -24
33 -72 53 -79 22 -7 16 -15 57 81 22 53 32 94 31 120 -3 51 -16 64 -29 28z"/>
<path d="M5394 4084 c-27 -41 -16 -129 14 -110 5 3 12 25 15 48 4 24 10 53 13
66 9 32 -21 29 -42 -4z"/>
<path d="M4063 3994 c-26 -20 -33 -33 -33 -59 0 -19 4 -36 9 -39 4 -3 11 -19
14 -36 8 -39 47 -44 47 -6 0 26 21 47 28 28 5 -16 37 -15 50 1 5 6 13 33 16
60 6 40 5 48 -11 53 -10 3 -26 10 -35 15 -29 15 -51 10 -85 -17z"/>
<path d="M4919 3964 c-39 -20 -42 -39 -11 -94 24 -43 26 -52 15 -79 -11 -31
-11 -31 21 -31 69 0 88 79 40 164 -32 57 -33 57 -65 40z"/>
<path d="M5206 3931 c-3 -5 -8 -33 -11 -62 -3 -30 -8 -73 -11 -97 -5 -37 -3
-47 19 -70 21 -23 38 -61 53 -119 2 -8 17 -11 41 -9 43 4 40 -19 27 180 l-6
98 -40 37 c-50 45 -65 54 -72 42z"/>
<path d="M4847 3493 c-4 -3 -7 -17 -7 -29 0 -13 -4 -26 -10 -29 -5 -3 -10 -10
-10 -16 0 -5 5 -9 10 -9 6 0 10 5 10 11 0 6 10 19 22 28 13 11 19 24 15 34 -7
18 -19 22 -30 10z"/>
<path d="M4040 3376 c0 -18 59 -68 74 -63 21 7 18 45 -6 61 -28 20 -68 21 -68
2z"/>
<path d="M5240 3374 c0 -10 33 -33 48 -34 10 0 10 4 0 20 -12 18 -48 29 -48
14z"/>
<path d="M1189 3215 c-4 -34 0 -206 5 -214 5 -7 63 -11 172 -11 187 0 185 1
138 -80 -14 -25 -60 -110 -101 -190 -42 -80 -79 -149 -83 -155 -4 -5 -36 -64
-70 -130 -35 -66 -73 -139 -86 -163 -13 -23 -24 -47 -24 -52 0 -7 142 -9 393
-8 l392 3 3 99 c2 64 -1 103 -9 112 -9 11 -51 14 -200 14 -175 0 -189 1 -189
18 0 10 4 22 9 28 4 5 39 68 76 139 37 72 71 135 75 140 4 6 42 78 85 160 43
83 95 180 116 217 20 36 35 69 31 72 -7 7 -732 8 -733 1z"/>
<path d="M1968 3214 c-4 -3 -3 -14 2 -23 4 -9 44 -126 88 -261 44 -135 115
-352 158 -482 l78 -238 112 0 c80 0 113 4 117 13 2 6 26 107 52 222 45 197 57
236 70 223 3 -2 28 -94 55 -204 28 -109 55 -211 61 -226 l11 -28 113 0 113 0
15 58 c16 62 100 345 149 507 17 55 34 116 38 135 7 28 61 212 87 293 5 16 -3
17 -118 15 l-123 -3 -8 -30 c-5 -16 -18 -61 -28 -100 -36 -134 -109 -377 -116
-384 -9 -10 -21 16 -38 84 -9 39 -22 86 -27 105 -5 19 -27 100 -48 180 l-37
145 -112 3 c-128 3 -120 9 -142 -103 -13 -67 -18 -91 -55 -255 -28 -124 -40
-160 -52 -160 -5 0 -46 116 -93 258 l-85 257 -116 3 c-63 1 -118 0 -121 -4z"/>
<path d="M5357 3213 c-4 -3 -7 -33 -7 -65 0 -49 -3 -58 -18 -58 -10 0 -22 4
-27 9 -27 26 -205 114 -213 106 -12 -12 -14 -188 -3 -218 9 -23 16 -28 39 -25
26 3 27 6 30 61 2 31 7 57 13 57 11 0 198 -98 214 -111 5 -5 17 -9 27 -9 16 0
18 11 18 130 l0 130 -33 0 c-19 0 -37 -3 -40 -7z"/>
<path d="M3515 3188 c-59 -166 -109 -309 -115 -333 -5 -16 -33 -100 -63 -185
-98 -280 -147 -428 -147 -445 0 -14 15 -15 116 -13 l117 3 20 53 20 52 155 -2
c126 -2 156 -6 162 -18 4 -8 15 -32 24 -52 l16 -38 116 0 116 0 -7 30 c-4 17
-31 104 -62 193 -30 89 -63 191 -73 227 -10 36 -54 171 -97 300 l-78 235 -108
3 c-80 2 -109 -1 -112 -10z m152 -527 c18 -51 30 -97 27 -102 -9 -15 -134 -11
-140 4 -4 11 11 66 52 185 10 30 31 0 61 -87z"/>
<path d="M4107 3193 c-4 -3 -7 -226 -7 -495 l0 -489 113 3 112 3 3 268 c1 157
6 267 12 267 14 0 29 -24 183 -290 163 -279 138 -259 297 -250 l95 5 0 490 0
490 -112 3 -113 3 0 -270 c0 -148 -4 -272 -9 -275 -7 -5 -61 64 -61 79 0 2
-29 53 -64 112 -35 60 -91 158 -126 218 -34 61 -69 116 -78 123 -17 13 -233
18 -245 5z"/>
<path d="M5094 2876 c-3 -8 -4 -25 -2 -38 3 -21 8 -23 87 -28 78 -5 82 -6 65
-21 -11 -9 -45 -31 -76 -48 -71 -40 -80 -52 -76 -93 l3 -33 165 0 165 0 3 32
c3 31 3 31 -52 38 -31 4 -67 5 -80 3 -57 -11 -41 12 44 62 l91 54 -3 40 -3 41
-163 3 c-135 2 -163 0 -168 -12z"/>
<path d="M5094 2557 c-2 -7 -3 -58 -2 -113 l3 -99 165 0 165 0 0 110 0 110
-26 3 c-36 4 -47 -14 -51 -83 -3 -52 -6 -60 -23 -60 -17 0 -21 8 -25 55 l-5
55 -35 0 c-35 0 -35 -1 -38 -47 -3 -46 -22 -75 -42 -63 -5 3 -10 30 -10 60 0
29 -3 60 -6 69 -8 20 -62 22 -70 3z"/>
<path d="M5355 2288 c-2 -7 -6 -35 -7 -63 l-3 -50 -125 -5 -125 -5 0 -35 0
-35 165 0 165 0 0 100 0 100 -33 3 c-20 2 -34 -2 -37 -10z"/>
<path d="M1196 2112 c-4 -6 -10 -175 -7 -209 1 -10 41 -13 166 -13 133 0 167
-3 171 -14 4 -11 -188 -394 -216 -431 -4 -5 -42 -77 -85 -160 -42 -82 -81
-155 -86 -161 -6 -8 -4 -14 7 -18 8 -3 183 -6 388 -6 276 0 375 3 384 12 13
13 17 185 4 205 -5 9 -62 12 -196 14 -144 1 -189 4 -193 14 -4 11 99 222 127
260 4 6 47 86 95 180 48 93 97 185 110 205 36 57 57 108 50 119 -7 13 -711 16
-719 3z"/>
<path d="M2033 2093 c-18 -7 -19 -963 -1 -981 8 -8 48 -12 114 -12 81 0 103 3
108 15 11 29 6 958 -6 972 -7 9 -39 13 -107 12 -53 0 -102 -3 -108 -6z"/>
<path d="M2712 2084 c-171 -37 -317 -171 -373 -341 -22 -64 -26 -205 -8 -262
80 -263 332 -423 579 -370 38 8 55 8 63 0 7 -7 54 -11 119 -11 l108 0 -2 283
-3 282 -199 3 c-140 2 -203 -1 -213 -9 -10 -9 -13 -36 -11 -113 l3 -101 75 -3
c105 -3 120 -8 120 -36 0 -19 -10 -29 -45 -46 -63 -30 -113 -35 -176 -17 -80
24 -133 67 -168 139 -61 121 -31 252 73 330 52 39 98 52 178 50 48 -1 129 -30
142 -51 15 -24 45 -8 116 65 l75 75 -35 29 c-57 47 -145 90 -217 105 -82 18
-118 17 -201 -1z"/>
<path d="M5255 2040 c-22 -11 -54 -20 -72 -20 -54 0 -84 -36 -94 -110 -13 -92
-16 -91 175 -88 l161 3 3 67 c3 79 -13 119 -61 148 -40 25 -63 25 -112 0z m87
-84 c15 -33 4 -56 -27 -56 -14 0 -28 7 -32 16 -8 21 13 64 32 64 8 0 20 -11
27 -24z m-157 -25 c3 -5 1 -12 -5 -16 -5 -3 -10 1 -10 9 0 18 6 21 15 7z"/>
<path d="M5156 1728 c-152 -125 -15 -370 165 -294 128 54 146 223 32 301 -30
20 -50 25 -98 25 -53 0 -65 -4 -99 -32z m155 -61 c47 -36 51 -97 10 -138 -62
-62 -151 -20 -151 72 0 44 39 79 87 79 21 0 45 -6 54 -13z"/>
<path d="M5097 1433 c-4 -3 -7 -27 -7 -52 0 -41 5 -50 47 -94 39 -39 45 -49
33 -57 -8 -5 -24 -7 -36 -4 -26 7 -47 -17 -42 -48 3 -23 3 -23 168 -23 l165 0
0 35 c0 34 -1 35 -42 38 -24 2 -43 6 -43 10 0 5 20 28 45 52 42 41 45 48 45
97 0 29 -4 53 -9 53 -5 0 -39 -34 -76 -75 -37 -41 -75 -75 -85 -75 -10 0 -49
34 -87 75 -38 41 -73 72 -76 68z"/>
</g>
</svg>
